<?xml version="1.0" standalone="no"?>
<!DOCTYPE svg PUBLIC "-//W3C//DTD SVG 20010904//EN"
 "http://www.w3.org/TR/2001/REC-SVG-20010904/DTD/svg10.dtd">
<svg version="1.0" xmlns="http://www.w3.org/2000/svg"
 width="1294.000000pt" height="1294.000000pt" viewBox="0 0 1294.000000 1294.000000"
 preserveAspectRatio="xMidYMid meet">
<metadata>
Created by potrace 1.11, written by Peter Selinger 2001-2013
</metadata>
<g transform="translate(0.000000,1294.000000) scale(0.100000,-0.100000)"
fill="#000000" stroke="none">
<path d="M6700 11195 c-44 -53 113 -261 244 -325 l46 -22 0 -76 c0 -133 12
-153 130 -224 26 -16 60 -28 81 -28 l36 0 6 -97 c3 -54 4 -100 2 -102 -3 -2
-52 20 -111 49 -83 41 -121 68 -179 124 l-73 71 -7 -125 c-6 -121 -6 -128 24
-220 17 -52 43 -121 59 -152 l29 -56 -36 -15 c-111 -47 -306 -87 -425 -87 -30
0 -57 -4 -60 -8 -3 -5 28 -39 69 -76 41 -37 75 -72 75 -78 0 -5 -6 -15 -12
-22 -29 -27 -174 -134 -234 -171 -83 -53 -134 -101 -134 -128 0 -16 -63 -84
-207 -225 -190 -184 -278 -285 -311 -352 -7 -14 -31 -45 -53 -70 -22 -25 -59
-76 -82 -115 -34 -58 -106 -156 -128 -175 -13 -12 -108 -181 -118 -212 -6 -18
-33 -70 -60 -116 -27 -46 -57 -104 -67 -130 -10 -26 -21 -51 -24 -57 -4 -5
-11 -21 -15 -35 -14 -49 -54 -86 -156 -148 -57 -34 -111 -68 -120 -75 -27 -21
-87 -112 -123 -190 -50 -105 -66 -181 -73 -347 -6 -131 -7 -141 -18 -109 -26
75 -69 157 -120 229 -113 160 -198 218 -405 276 -116 33 -133 35 -225 31 -55
-3 -113 -10 -128 -16 -52 -20 -130 -13 -183 15 -27 15 -101 53 -164 86 -63 33
-119 64 -125 69 -14 14 -50 11 -116 -11 l-61 -21 -42 39 c-82 76 -81 75 -216
62 -144 -13 -156 -11 -286 66 -50 30 -95 54 -101 54 -5 0 -36 13 -69 29 -89
43 -169 55 -273 41 l-86 -12 -75 -77 c-68 -69 -120 -132 -120 -146 0 -21 -38
-85 -50 -85 -20 1 -122 24 -195 46 -58 17 -77 30 -135 100 -14 16 -41 39 -61
50 -36 22 -171 57 -264 69 -98 14 -92 -3 -99 302 -3 147 -11 324 -18 391 -14
126 -16 132 -65 160 -6 4 -25 54 -42 110 -16 57 -37 112 -45 121 -9 10 -16 24
-16 32 0 8 -9 43 -21 77 -14 43 -27 63 -42 68 -12 4 -23 2 -24 -3 -2 -5 -38
-8 -81 -7 -61 1 -85 7 -112 24 -26 16 -29 21 -12 17 12 -3 20 -1 17 3 -11 18
-114 32 -206 29 -81 -3 -101 -8 -130 -28 -33 -22 -66 -64 -96 -120 -7 -13 -22
-40 -33 -60 -11 -20 -34 -76 -52 -126 l-32 -90 -5 -419 c-5 -324 -9 -420 -19
-424 -6 -2 -10 -7 -7 -12 3 -5 1 -136 -5 -292 -26 -704 -26 -661 -1 -709 25
-48 42 -64 128 -122 29 -20 40 -34 36 -45 -4 -14 -3 -14 5 -3 13 18 93 11 142
-12 32 -15 116 -45 275 -99 53 -17 78 -19 213 -15 101 3 152 1 152 -6 0 -5 8
-3 18 6 13 12 46 18 117 22 55 3 111 8 125 10 20 3 38 -8 80 -47 l55 -51 75 8
c99 9 109 9 150 -13 89 -46 87 -41 93 -160 7 -131 24 -191 76 -262 22 -30 56
-78 75 -106 59 -88 91 -98 211 -69 33 8 106 14 162 15 l102 0 96 -57 c204
-122 258 -146 368 -167 101 -20 200 -53 225 -76 12 -11 26 -20 31 -20 12 0
132 -71 261 -155 98 -64 234 -145 244 -145 3 0 35 -14 72 -30 74 -35 178 -100
241 -152 23 -20 86 -65 140 -101 54 -36 107 -74 118 -84 11 -11 56 -46 100
-80 91 -69 105 -85 219 -238 99 -133 145 -203 181 -274 14 -29 31 -59 36 -65
6 -6 18 -25 28 -42 11 -17 41 -44 67 -59 27 -16 56 -35 64 -44 45 -45 178
-132 268 -176 l102 -49 2 -56 c2 -30 3 -80 3 -110 1 -82 56 -182 154 -281 42
-42 95 -88 118 -102 58 -36 72 -85 74 -251 l2 -128 -29 -27 c-16 -14 -52 -44
-79 -66 -28 -21 -52 -42 -55 -45 -15 -18 -123 -92 -174 -119 -52 -27 -69 -31
-140 -31 l-81 -1 -43 -59 c-34 -46 -49 -81 -68 -157 -14 -54 -27 -116 -29
-138 -7 -96 -27 -159 -67 -216 -65 -92 -64 -199 1 -199 16 0 17 -5 8 -45 -13
-56 1 -87 51 -111 43 -20 96 -13 127 16 13 12 37 52 55 88 48 102 60 123 100
177 56 76 166 127 300 140 36 4 69 9 73 12 25 15 -38 -112 -73 -147 -3 -3 -39
-43 -81 -90 -63 -70 -79 -96 -93 -145 -10 -33 -29 -77 -43 -98 -13 -22 -27
-53 -30 -71 -14 -88 142 -95 180 -8 36 84 248 322 342 386 22 14 69 46 104 71
66 46 122 63 219 67 36 2 56 -2 61 -11 5 -7 25 -15 44 -16 52 -3 63 -17 76
-93 7 -37 19 -81 28 -99 31 -63 135 -107 208 -89 45 11 65 41 65 96 0 41 -5
55 -30 83 -16 19 -30 38 -30 42 0 3 -7 13 -15 21 -11 12 -15 39 -15 105 0 129
-25 185 -131 289 -96 94 -94 88 -93 315 0 176 3 216 27 334 15 73 27 144 27
158 0 15 21 46 61 87 33 35 70 77 82 93 21 29 23 29 55 16 83 -34 272 -57 477
-57 l200 -1 165 42 c91 24 224 63 295 89 72 25 175 61 230 80 54 20 151 61
215 93 63 32 147 70 185 84 96 35 195 78 195 86 0 4 21 18 47 31 26 14 53 30
59 35 6 6 22 17 34 25 12 8 57 40 100 70 43 30 86 61 96 67 11 7 41 29 69 48
27 19 55 35 61 35 6 0 29 -13 51 -29 22 -16 54 -36 71 -45 40 -21 150 -22 179
-1 19 14 24 12 61 -23 66 -61 142 -125 179 -152 24 -17 47 -49 71 -98 61 -130
123 -171 256 -172 63 0 93 5 145 27 42 16 91 27 136 30 65 4 75 1 135 -32 134
-73 147 -78 175 -71 15 4 29 16 32 26 4 14 14 20 35 20 90 0 118 18 307 199
l64 61 22 -20 c12 -11 35 -20 52 -20 27 0 34 -6 54 -47 29 -60 86 -117 176
-176 49 -32 74 -56 81 -77 22 -62 116 -167 172 -194 19 -9 49 -24 65 -34 21
-12 52 -17 105 -17 92 1 210 42 291 102 64 48 90 76 147 162 23 35 42 59 42
55 0 -15 40 50 40 66 0 21 96 218 124 255 12 16 40 55 61 85 21 30 45 61 52
69 8 8 22 26 31 40 21 32 253 343 322 431 83 105 129 178 189 300 69 140 123
273 145 358 52 204 -32 480 -160 530 -59 23 -91 23 -148 3 l-56 -20 -55 52
c-103 98 -127 117 -146 117 -20 0 -41 -16 -129 -96 -30 -28 -63 -57 -73 -65
-10 -8 -32 -27 -51 -44 -103 -94 -110 -99 -159 -106 -27 -5 -56 -14 -65 -21
-13 -11 -118 -133 -140 -163 -4 -5 -52 -68 -107 -138 -55 -71 -133 -172 -173
-225 -82 -109 -135 -173 -189 -227 -54 -54 -67 -49 -202 71 -25 22 -62 51 -81
64 -19 14 -46 35 -60 47 -29 27 -76 30 -107 8 -20 -14 -21 -13 -27 21 -13 67
-67 192 -106 245 -22 29 -40 55 -40 58 0 6 -13 21 -75 92 -42 47 -95 87 -136
101 -19 6 -72 36 -117 66 -96 62 -151 82 -231 82 -53 0 -108 -19 -145 -49 -9
-8 -26 -1 -64 24 -28 19 -54 35 -58 35 -13 0 -99 45 -119 63 -54 47 -90 70
-191 121 -60 31 -115 56 -122 56 -7 0 -20 4 -30 9 -50 26 -166 44 -250 38
-119 -7 -422 -89 -548 -148 -50 -23 -251 -101 -348 -134 -38 -13 -90 -38 -115
-54 -168 -109 -284 -171 -297 -158 -4 4 79 123 116 167 95 114 174 222 195
267 30 61 32 126 10 278 -9 64 -11 103 -5 109 7 7 10 6 10 -1 0 -6 18 -18 41
-27 61 -25 69 -13 69 96 0 80 9 123 30 138 3 3 31 39 62 80 31 41 67 86 80
100 13 14 34 39 46 55 13 17 38 46 56 66 44 47 138 184 172 251 15 29 38 66
50 81 13 15 26 44 30 65 4 20 17 51 29 67 25 34 45 87 45 121 0 19 5 24 25 24
32 0 60 44 69 108 4 33 15 57 36 79 33 35 48 68 59 128 5 30 13 43 33 53 31
14 58 76 58 131 0 21 6 44 14 50 13 11 22 63 30 171 2 25 7 53 11 63 7 17 9
17 28 -4 l21 -23 9 35 c5 19 7 63 4 98 -3 35 -2 59 2 54 3 -5 38 -36 76 -68
39 -32 94 -82 124 -112 30 -29 56 -51 58 -49 3 2 0 28 -6 58 -13 65 -34 354
-27 366 12 20 126 21 244 2 66 -11 132 -24 146 -30 36 -13 36 -14 27 18 -14
49 -52 116 -94 167 -23 28 -46 56 -52 63 -12 15 -84 95 -125 137 l-29 31 47
46 47 47 82 2 c55 2 87 -1 95 -9 28 -28 79 -6 97 41 l11 27 157 0 c87 0 168 3
179 6 27 7 46 50 78 173 14 54 33 103 46 116 12 12 51 37 88 54 63 28 78 31
212 37 151 6 226 21 345 70 69 28 107 30 178 9 29 -8 122 -19 207 -25 249 -17
350 -27 439 -44 119 -23 342 -22 379 1 69 44 79 85 32 131 -47 48 -232 111
-326 112 -44 0 -141 26 -161 42 -30 24 -14 63 50 125 34 33 76 68 92 78 17 10
39 27 50 36 11 10 49 42 85 72 92 75 113 109 107 171 -10 107 -119 139 -209
61 -53 -46 -157 -124 -213 -160 -99 -64 -175 -48 -175 38 0 57 43 126 124 199
118 107 156 149 199 222 37 62 42 79 45 142 4 63 1 75 -17 93 -49 49 -123 4
-250 -151 -32 -40 -86 -102 -119 -137 -34 -35 -78 -85 -99 -110 -46 -58 -102
-103 -123 -99 -32 6 -18 106 22 152 25 29 113 175 182 299 44 81 33 177 -22
177 -36 0 -67 -30 -127 -120 -28 -41 -53 -77 -56 -80 -15 -13 -129 -173 -129
-181 0 -6 -10 -32 -22 -59 -25 -53 -49 -70 -75 -49 -13 11 -14 28 -9 97 8 98
32 165 81 229 50 66 44 113 -15 113 -35 0 -184 -120 -224 -179 -28 -41 -31
-55 -39 -175 -8 -118 -12 -138 -42 -202 -26 -55 -50 -86 -102 -133 l-68 -61
-93 0 c-51 0 -112 4 -135 9 -23 5 -70 15 -104 22 -59 11 -63 14 -74 48 -15 46
-35 76 -79 124 -31 34 -43 39 -104 48 -38 5 -150 10 -250 12 -170 2 -183 3
-205 24 -38 34 -124 56 -191 50 -61 -5 -118 -36 -169 -91 -29 -31 -68 -33
-231 -15 l-100 12 0 46 c1 25 5 65 9 89 5 23 5 44 1 47 -7 4 -66 -42 -129
-103 -36 -34 -42 -34 -111 -7 -84 33 -207 65 -252 65 -26 0 -48 4 -48 9 0 5
-19 38 -41 72 -23 34 -55 87 -71 118 -33 62 -57 93 -68 86 -4 -2 -10 -30 -12
-62 -3 -32 -14 -95 -24 -140 -16 -72 -22 -83 -40 -83 -11 0 -68 -16 -125 -36
l-104 -36 -49 54 c-26 29 -65 73 -85 98 -55 68 -99 115 -104 110 -3 -3 -15
-51 -28 -107 l-24 -102 -44 40 c-115 104 -165 132 -258 144 -26 4 -68 2 -92
-3 -47 -11 -41 -14 -201 78 -36 20 -100 54 -142 76 -42 21 -75 40 -73 43 3 2
-3 9 -14 15 -102 60 -129 67 -151 41z m716 -346 c25 -7 48 -18 51 -25 3 -8 9
-12 13 -9 4 3 24 -6 44 -20 20 -14 39 -25 42 -25 2 0 17 -11 32 -25 16 -14 36
-31 46 -38 15 -11 16 -21 5 -107 -12 -107 -15 -115 -34 -100 -7 6 -26 13 -42
16 -15 3 -35 12 -44 20 -8 8 -21 14 -27 14 -6 0 -23 11 -37 25 -14 14 -25 22
-25 18 0 -4 -4 -3 -8 2 -4 6 -35 27 -70 48 -74 45 -104 46 -112 2 -6 -36 -26
-42 -87 -24 -41 11 -71 38 -77 71 -2 7 -6 20 -10 30 -4 9 -6 30 -4 48 l3 31
38 -34 c45 -42 61 -49 105 -49 46 0 44 0 75 26 24 21 29 33 29 70 0 42 2 46
24 46 14 0 46 -5 70 -11z"/>
</g>
</svg>
